#define x_width 70
#define x_height 70
static char x_bits[] = {
0x00, 0x00, 0x00, 0x00, 0x00, 0x00, 0x00, 0x00, 0xc0, 
0x00, 0x00, 0x00, 0x00, 0x00, 0x00, 0x00, 0x00, 0xc0, 
0x00, 0x00, 0x00, 0x00, 0x00, 0x00, 0x00, 0x00, 0xc0, 
0x00, 0x00, 0x00, 0x00, 0x00, 0x00, 0x00, 0x00, 0xc0, 
0x00, 0x00, 0x00, 0x00, 0x00, 0x00, 0x00, 0x00, 0xc0, 
0x00, 0x00, 0x00, 0x00, 0x00, 0x00, 0x00, 0x00, 0xc0, 
0x00, 0x00, 0x00, 0x00, 0x00, 0x00, 0x00, 0x00, 0xc0, 
0x00, 0x00, 0x00, 0x00, 0xfc, 0x03, 0x00, 0x00, 0xc0, 
0x00, 0x00, 0x00, 0x80, 0xff, 0x1f, 0x00, 0x00, 0xc0, 
0x00, 0x00, 0x00, 0xe0, 0x03, 0x7c, 0x00, 0x00, 0xc0, 
0x00, 0x00, 0x00, 0x70, 0x00, 0xf0, 0x00, 0x00, 0xc0, 
0x00, 0x00, 0x00, 0x38, 0x00, 0xc0, 0x01, 0x00, 0xc0, 
0x00, 0x00, 0x00, 0x1c, 0x00, 0x80, 0x03, 0x00, 0xc0, 
0x00, 0x00, 0xff, 0x0f, 0x00, 0x00, 0x07, 0x00, 0xc0, 
0x00, 0xc0, 0xff, 0x0f, 0x00, 0x00, 0x0f, 0x00, 0xc0, 
0x00, 0xe0, 0x00, 0x0e, 0x00, 0x00, 0x18, 0x00, 0xc0, 
0x00, 0x70, 0x00, 0x08, 0x00, 0x00, 0x38, 0x00, 0xc0, 
0x00, 0x30, 0x00, 0x80, 0x24, 0xe0, 0x07, 0x00, 0xc0, 
0x00, 0x3c, 0x49, 0x02, 0x00, 0xff, 0xff, 0x00, 0xc0, 
0x00, 0x0f, 0x00, 0xe0, 0xc7, 0x0f, 0xf0, 0x03, 0xc0, 
0x80, 0x27, 0x49, 0xfc, 0xff, 0x00, 0x80, 0x0f, 0xc0, 
0x80, 0x41, 0x10, 0x1e, 0x38, 0x00, 0x00, 0x1c, 0xc0, 
0xc0, 0x14, 0x05, 0x07, 0x00, 0x00, 0x00, 0x18, 0xc0, 
0xe0, 0x41, 0x80, 0x03, 0x00, 0x00, 0x00, 0x30, 0xc0, 
0x60, 0x14, 0xfe, 0x01, 0x00, 0x00, 0x00, 0x30, 0xc0, 
0x60, 0x81, 0xff, 0x00, 0x00, 0x00, 0x00, 0x30, 0xc0, 
0x60, 0xca, 0x01, 0x00, 0x00, 0x00, 0x00, 0x38, 0xc0, 
0xe0, 0xe4, 0x24, 0x09, 0x00, 0x00, 0x00, 0x30, 0xc0, 
0x60, 0x62, 0x09, 0x20, 0x01, 0x00, 0x00, 0x60, 0xc0, 
0xc0, 0x34, 0xa0, 0x04, 0x00, 0x00, 0x00, 0xe0, 0xc0, 
0xc0, 0xb2, 0x0a, 0x41, 0x24, 0x00, 0x00, 0xc0, 0xc0, 
0x80, 0x33, 0x20, 0x14, 0x01, 0x01, 0x00, 0xc0, 0xc0, 
0x80, 0xb7, 0x4a, 0x21, 0x10, 0x00, 0x00, 0xc0, 0xc0, 
0x00, 0xb6, 0x24, 0x84, 0x44, 0x24, 0x00, 0xc0, 0xc0, 
0x00, 0x74, 0x49, 0x29, 0x09, 0x01, 0x00, 0xe0, 0xc0, 
0x00, 0x60, 0x24, 0x84, 0x20, 0x88, 0x04, 0x60, 0xc0, 
0x00, 0xe0, 0x49, 0x29, 0x4a, 0x22, 0x20, 0x30, 0xc0, 
0x00, 0xc0, 0x23, 0x42, 0x01, 0x01, 0x01, 0x3c, 0xc0, 
0x00, 0x00, 0x8f, 0x14, 0x5a, 0x54, 0xc8, 0x0f, 0xc0, 
0x00, 0x00, 0x3c, 0x51, 0x25, 0x01, 0xa5, 0x03, 0xc0, 
0x00, 0x00, 0x68, 0x84, 0x4b, 0x54, 0x0c, 0x03, 0xc0, 
0x00, 0x00, 0xd0, 0xff, 0x1b, 0x01, 0x54, 0x03, 0xc0, 
0x00, 0x00, 0xb0, 0x7f, 0xa8, 0x54, 0xa5, 0x01, 0xc0, 
0x00, 0x00, 0x50, 0x00, 0x48, 0x12, 0x44, 0x01, 0xc0, 
0x00, 0x00, 0x90, 0x00, 0x88, 0xa4, 0x84, 0x00, 0xc0, 
0x00, 0x00, 0x10, 0x01, 0x08, 0x95, 0x84, 0x00, 0xc0, 
0x00, 0x00, 0x10, 0x02, 0x08, 0xfd, 0x85, 0x00, 0xc0, 
0x00, 0x00, 0x10, 0x02, 0x08, 0xf1, 0x88, 0x00, 0xc0, 
0x00, 0x00, 0x10, 0x02, 0x10, 0x01, 0x70, 0x00, 0xc0, 
0x00, 0x00, 0x20, 0x02, 0xe0, 0x00, 0x00, 0x00, 0xc0, 
0x00, 0x00, 0xc0, 0x01, 0x00, 0x00, 0x00, 0x00, 0xc0, 
0x00, 0x00, 0x00, 0x00, 0x00, 0x00, 0x00, 0x08, 0xc0, 
0x00, 0x00, 0x00, 0x00, 0x00, 0x10, 0x00, 0x18, 0xc0, 
0x00, 0x00, 0x00, 0x20, 0x00, 0x30, 0x00, 0x28, 0xc0, 
0x00, 0x00, 0x00, 0x60, 0x00, 0x50, 0x00, 0x48, 0xc0, 
0x00, 0x00, 0x00, 0xa0, 0x00, 0x90, 0x00, 0x88, 0xc0, 
0x00, 0x00, 0x00, 0x20, 0x01, 0x10, 0x01, 0x08, 0xc1, 
0x00, 0x00, 0x00, 0x20, 0x02, 0x10, 0x02, 0x08, 0xc1, 
0x00, 0x00, 0x00, 0x20, 0x04, 0x10, 0x02, 0x08, 0xc1, 
0x00, 0x00, 0x00, 0x20, 0x04, 0x10, 0x02, 0x10, 0xc1, 
0x00, 0x00, 0x00, 0x20, 0x04, 0x20, 0x02, 0xe0, 0xc0, 
0x00, 0x00, 0x00, 0x40, 0x04, 0xc0, 0x01, 0x00, 0xc0, 
0x00, 0x00, 0x00, 0x80, 0x03, 0x00, 0x00, 0x00, 0xc0, 
0x00, 0x00, 0x00, 0x00, 0x00, 0x00, 0x00, 0x00, 0xc0, 
0x00, 0x00, 0x00, 0x00, 0x00, 0x00, 0x00, 0x00, 0xc0, 
0x00, 0x00, 0x00, 0x00, 0x00, 0x00, 0x00, 0x00, 0xc0, 
0x00, 0x00, 0x00, 0x00, 0x00, 0x00, 0x00, 0x00, 0xc0, 
0x00, 0x00, 0x00, 0x00, 0x00, 0x00, 0x00, 0x00, 0xc0, 
0x00, 0x00, 0x00, 0x00, 0x00, 0x00, 0x00, 0x00, 0xc0, 
0x00, 0x00, 0x00, 0x00, 0x00, 0x00, 0x00, 0x00, 0xc0, 
}; 
