#define x_width 70
#define x_height 70
static char x_bits[] = {
0x00, 0x00, 0x00, 0x00, 0x08, 0x00, 0x00, 0x00, 0xc0, 
0x00, 0x00, 0x00, 0x00, 0x08, 0x00, 0x00, 0x00, 0xc0, 
0x00, 0x00, 0x00, 0x00, 0x0c, 0x00, 0x00, 0x00, 0xc0, 
0x00, 0x00, 0x00, 0x00, 0x1c, 0x00, 0x00, 0x00, 0xc0, 
0x00, 0x00, 0x00, 0x00, 0x1c, 0x00, 0x00, 0x00, 0xc0, 
0x00, 0x00, 0x00, 0x00, 0x1c, 0x00, 0x00, 0x00, 0xc0, 
0x00, 0x00, 0x00, 0x00, 0x1e, 0x00, 0x00, 0x00, 0xc0, 
0x00, 0x00, 0x00, 0x00, 0x3e, 0x00, 0x00, 0x00, 0xc0, 
0x00, 0x00, 0x00, 0x00, 0x00, 0x00, 0x00, 0x00, 0xc0, 
0x00, 0x00, 0x00, 0x80, 0x7f, 0x00, 0x00, 0x00, 0xc0, 
0x00, 0x04, 0x00, 0xf0, 0xff, 0x03, 0x00, 0x08, 0xc0, 
0x00, 0x18, 0x00, 0x7c, 0x80, 0x0f, 0x00, 0x06, 0xc0, 
0x00, 0x78, 0x00, 0x0e, 0x00, 0x1e, 0x80, 0x07, 0xc0, 
0x00, 0xf0, 0x00, 0x07, 0x00, 0x38, 0xc0, 0x03, 0xc0, 
0x00, 0x10, 0x80, 0x03, 0x00, 0x70, 0xf0, 0x03, 0xc0, 
0x00, 0xe0, 0xff, 0x01, 0x00, 0xe0, 0xfc, 0x01, 0xc0, 
0x00, 0xf8, 0xff, 0x01, 0x00, 0xe0, 0xfd, 0x01, 0xc0, 
0x00, 0x1c, 0xc0, 0x01, 0x00, 0x00, 0xfb, 0x00, 0xc0, 
0x00, 0x0e, 0x00, 0x01, 0x00, 0x00, 0xf7, 0x00, 0xc0, 
0x00, 0x06, 0x00, 0x90, 0x04, 0xfc, 0x40, 0x00, 0xc0, 
0x80, 0x27, 0x49, 0x00, 0xe0, 0xff, 0x1f, 0x00, 0xc0, 
0xe0, 0x01, 0x00, 0xfc, 0xf8, 0x01, 0x7e, 0x00, 0xc0, 
0xf0, 0x24, 0x89, 0xff, 0x1f, 0x00, 0xf0, 0x01, 0xc0, 
0x30, 0x08, 0xc2, 0x03, 0x07, 0x00, 0x80, 0x03, 0xc0, 
0x98, 0xa2, 0xe0, 0x00, 0x00, 0x00, 0x00, 0x03, 0xc0, 
0x3c, 0x08, 0x70, 0x00, 0x00, 0x00, 0x00, 0x06, 0xc0, 
0x8c, 0xc2, 0x3f, 0x00, 0x00, 0x00, 0x00, 0x06, 0xc0, 
0x2c, 0xf0, 0x1f, 0x00, 0x00, 0x00, 0x00, 0x06, 0xc0, 
0x4c, 0x39, 0x00, 0x00, 0x00, 0x00, 0x00, 0x07, 0xc0, 
0x9c, 0x9c, 0x24, 0x01, 0x00, 0x00, 0x00, 0x06, 0xc0, 
0x4c, 0x2c, 0x01, 0x24, 0x00, 0x00, 0x00, 0x0c, 0xc0, 
0x98, 0x06, 0x94, 0x00, 0x00, 0x00, 0x00, 0x1c, 0xc0, 
0x58, 0x56, 0x21, 0x88, 0x04, 0x00, 0x00, 0x18, 0xc0, 
0x70, 0x06, 0x84, 0x22, 0x20, 0x00, 0x00, 0xd8, 0xc0, 
0xf4, 0x56, 0x29, 0x04, 0x02, 0x00, 0x00, 0xd8, 0xcf, 
0xcf, 0x96, 0x84, 0x90, 0x88, 0x04, 0x00, 0xd8, 0xff, 
0xb8, 0x2e, 0x29, 0x25, 0x21, 0x00, 0x00, 0xdc, 0xc7, 
0x00, 0x8c, 0x84, 0x10, 0x04, 0x91, 0x00, 0x6c, 0xc0, 
0x00, 0x3c, 0x29, 0x45, 0x49, 0x04, 0x04, 0x06, 0xc0, 
0x00, 0x78, 0x44, 0x28, 0x20, 0x20, 0x80, 0x07, 0xc0, 
0x00, 0xe0, 0x91, 0x42, 0x8b, 0x0a, 0xf9, 0x01, 0xc0, 
0x00, 0x80, 0x27, 0xaa, 0x25, 0x20, 0x74, 0x00, 0xc0, 
0x00, 0x00, 0x8f, 0xf0, 0x89, 0x4a, 0x61, 0x00, 0xc0, 
0x00, 0x00, 0xfe, 0xff, 0x25, 0x00, 0x68, 0x00, 0xc0, 
0x00, 0x00, 0xf0, 0x8f, 0x91, 0xaa, 0x32, 0x00, 0xc0, 
0x00, 0x00, 0x0e, 0x70, 0x47, 0x02, 0x38, 0x00, 0xc0, 
0x00, 0x00, 0x1e, 0xfe, 0x9e, 0x54, 0x1f, 0x00, 0xc0, 
0x00, 0x00, 0x40, 0xfc, 0xfd, 0xd2, 0x2f, 0x00, 0xc0, 
0x00, 0x00, 0x95, 0xf0, 0xf3, 0xff, 0x31, 0x00, 0xc0, 
0x00, 0x00, 0x0e, 0x81, 0x0f, 0x1e, 0x7e, 0x00, 0xc0, 
0x00, 0x40, 0x55, 0x03, 0x00, 0xe0, 0x7f, 0x00, 0xc0, 
0x00, 0x80, 0x2e, 0x01, 0x00, 0x60, 0xc0, 0x00, 0xc0, 
0x00, 0xc0, 0x7b, 0xc0, 0xff, 0x00, 0x95, 0x00, 0xc0, 
0x00, 0x80, 0x2e, 0xc0, 0xff, 0x00, 0x0e, 0x01, 0xc0, 
0x00, 0x40, 0x55, 0x80, 0xff, 0x40, 0x55, 0x01, 0xc0, 
0x00, 0x10, 0x0e, 0x00, 0x60, 0x80, 0x2e, 0x03, 0xc0, 
0x00, 0x30, 0x15, 0x80, 0x4a, 0xc0, 0x7b, 0x03, 0xc0, 
0x00, 0x78, 0x00, 0x00, 0x07, 0x80, 0x2e, 0x07, 0xc0, 
0x00, 0x18, 0x00, 0xa0, 0x2a, 0x40, 0x55, 0x06, 0xc0, 
0x00, 0x04, 0x00, 0x40, 0x17, 0x00, 0x0e, 0x08, 0xc0, 
0x00, 0x00, 0x00, 0xe0, 0x3d, 0x00, 0x15, 0x00, 0xc0, 
0x00, 0x00, 0x00, 0x40, 0x17, 0x00, 0x00, 0x00, 0xc0, 
0x00, 0x00, 0x00, 0xa0, 0x2a, 0x00, 0x00, 0x00, 0xc0, 
0x00, 0x00, 0x00, 0x00, 0x07, 0x00, 0x00, 0x00, 0xc0, 
0x00, 0x00, 0x00, 0x80, 0x0a, 0x00, 0x00, 0x00, 0xc0, 
0x00, 0x00, 0x00, 0x00, 0x00, 0x00, 0x00, 0x00, 0xc0, 
0x00, 0x00, 0x00, 0x00, 0x1c, 0x00, 0x00, 0x00, 0xc0, 
0x00, 0x00, 0x00, 0x00, 0x0c, 0x00, 0x00, 0x00, 0xc0, 
0x00, 0x00, 0x00, 0x00, 0x08, 0x00, 0x00, 0x00, 0xc0, 
0x00, 0x00, 0x00, 0x00, 0x08, 0x00, 0x00, 0x00, 0xc0, 
}; 
